<svg width="54" height="54" viewBox="0 0 54 54" fill="none" xmlns="http://www.w3.org/2000/svg">
<path d="M26.9415 1.94727L42.2868 17.2424L36.6156 22.9086L26.9415 13.2345L17.2674 22.9587L11.5962 17.2925L26.9415 1.94727ZM7.59167 21.2954L13.2111 26.9649L7.59501 32.5843L1.92383 26.9649L7.59167 21.2954ZM26.9415 21.2988L32.6093 26.9148L26.9398 32.5843L21.2703 26.9649L26.9398 21.2988H26.9415ZM46.2896 21.2954L52.0059 26.9649L46.3397 32.6344L40.6702 26.9649L46.2896 21.2954ZM36.6139 30.9712L42.2851 36.6373L26.9398 51.9826L11.5946 36.6407L17.2657 30.9712L26.9398 40.6953L36.6139 30.9712Z" fill="#F0B90B"/>
</svg>
