<svg width="69" height="70" viewBox="0 0 69 70" fill="none" xmlns="http://www.w3.org/2000/svg">
<rect x="0.0322266" y="0.779297" width="68.7069" height="68.7069" rx="9.16092" fill="white"/>
<path d="M18.9261 14.1777C19.8344 14.6126 20.6605 15.0836 21.4825 15.6646C21.8212 15.9035 21.8212 15.9035 22.1668 16.1473C22.4082 16.3192 22.6496 16.4912 22.8982 16.6684C23.15 16.8467 23.4018 17.0251 23.6612 17.2089C25.9895 18.8653 28.2898 20.5595 30.5822 22.2652C30.8448 22.4602 31.1074 22.6551 31.3779 22.856C31.7269 23.1162 31.7269 23.1162 32.083 23.3816C32.665 23.8174 32.665 23.8174 33.3546 24.1402C33.3546 36.0437 33.3546 47.9472 33.3546 60.2114C32.7877 60.098 32.2209 59.9846 31.6369 59.8678C31.3542 59.8226 31.0716 59.7773 30.7803 59.7307C29.7269 59.4589 29.0623 59.1694 28.2016 58.4937C27.3007 56.7053 26.878 54.8303 26.4195 52.8898C26.2782 52.3392 26.1353 51.7891 25.991 51.2393C25.7055 50.1485 25.4262 49.0564 25.1514 47.9629C24.6683 46.0625 24.0924 44.1947 23.4994 42.3261C22.5106 39.1428 21.6304 35.9345 20.7798 32.7117C20.6871 32.3608 20.5944 32.0099 20.4989 31.6483C20.4096 31.3044 20.3202 30.9604 20.2282 30.606C19.9761 29.6565 19.9761 29.6565 19.6604 28.8313C18.6135 25.9461 18.8131 22.9998 18.8617 19.9749C18.8669 19.4113 18.8716 18.8477 18.8758 18.284C18.8871 16.9152 18.9048 15.5465 18.9261 14.1777Z" fill="#FF7D34"/>
<path d="M49.8447 14.1777C51.1793 24.5921 47.9025 34.0069 44.8089 43.7932C44.029 46.2704 43.3017 48.7481 42.6707 51.2674C42.569 51.6665 42.569 51.6665 42.4652 52.0737C42.1717 53.2292 41.8899 54.3842 41.6268 55.5471C40.9472 58.1964 40.9472 58.1964 39.8703 59.0436C38.4266 59.7297 36.9859 59.9544 35.4163 60.2114C35.2726 55.5858 35.1629 50.9608 35.0959 46.3335C35.0637 44.1843 35.0201 42.0367 34.9498 39.8884C34.8822 37.8123 34.8455 35.7376 34.8296 33.6604C34.8182 32.8709 34.796 32.0815 34.7625 31.2927C34.5171 25.2783 34.5171 25.2783 36.022 23.3736C37.4856 22.0115 39.1169 21.0072 40.8754 20.0703C41.8141 19.5572 42.6573 18.9439 43.5081 18.2975C44.2609 17.7543 45.0136 17.2112 45.7666 16.6684C46.0132 16.4903 46.2599 16.3123 46.514 16.1289C46.7265 15.9756 46.939 15.8223 47.158 15.6644C47.6149 15.3312 48.0636 14.9866 48.507 14.6355C49.1576 14.1777 49.1576 14.1777 49.8447 14.1777Z" fill="#FF7D34"/>
<path d="M51.2189 27.5747C52.5531 28.0194 53.0397 28.8447 53.8383 29.9365C54.9807 31.4826 56.1679 32.9171 57.4669 34.338C58.4358 35.526 58.9904 36.2612 58.884 37.8163C58.7528 38.4149 58.6 39.0088 58.4331 39.5984C58.3485 39.9983 58.264 40.3982 58.1768 40.8102C57.5311 43.5452 56.8834 44.8194 54.6542 46.4691C54.4204 46.644 54.1866 46.8188 53.9457 46.999C53.1923 47.5529 52.4323 48.0963 51.6698 48.6377C51.1252 49.0274 50.5808 49.4175 50.0367 49.8078C49.7718 49.9978 49.5069 50.1878 49.234 50.3835C47.5871 51.5734 45.9667 52.7987 44.3482 54.0269C44.1215 53.9135 43.8947 53.8001 43.6611 53.6833C44.5956 50.4313 45.5302 47.1793 46.4652 43.9274C46.8993 42.4175 47.3333 40.9076 47.7672 39.3975C48.1858 37.9407 48.6045 36.484 49.0235 35.0273C49.1834 34.4711 49.3432 33.9149 49.503 33.3586C49.7265 32.5805 49.9503 31.8024 50.1741 31.0244C50.2403 30.7936 50.3066 30.5628 50.3748 30.325C50.6406 29.4018 50.915 28.4863 51.2189 27.5747Z" fill="#FF7D34"/>
<path d="M16.8655 27.5747C17.0923 27.5747 17.319 27.5747 17.5526 27.5747C18.2489 29.9867 18.945 32.3986 19.641 34.8107C19.8768 35.6278 20.1126 36.4449 20.3485 37.262C20.4621 37.6555 20.5757 38.049 20.6927 38.4544C20.806 38.8468 20.9193 39.2392 21.0361 39.6436C21.2632 40.4312 21.4898 41.2189 21.716 42.0068C22.2508 43.8694 22.7908 45.73 23.3467 47.5864C23.445 47.9185 23.5432 48.2506 23.6445 48.5928C23.8275 49.2108 24.0131 49.828 24.2018 50.4443C24.322 50.8532 24.322 50.8532 24.4446 51.2703C24.551 51.6233 24.551 51.6233 24.6595 51.9834C24.7838 52.7587 24.6604 53.2848 24.4233 54.0269C21.2024 51.6608 17.9837 49.2917 14.7829 46.8985C14.5521 46.7266 14.3214 46.5547 14.0837 46.3775C11.8782 44.7246 11.38 43.6121 10.596 41.037C10.4951 40.7268 10.3941 40.4166 10.2901 40.0969C9.59726 37.8303 9.59726 37.8303 9.82576 36.5911C10.509 35.5628 11.2795 34.6353 12.099 33.7154C13.6308 31.9602 15.011 30.1668 16.3301 28.2443C16.5068 28.0234 16.6835 27.8024 16.8655 27.5747Z" fill="#FF7D34"/>
</svg>
